<?xml version="1.0" standalone="no"?>
<!DOCTYPE svg PUBLIC "-//W3C//DTD SVG 1.1//EN" "http://www.w3.org/Graphics/SVG/1.1/DTD/svg11.dtd" >
<!--
2013-9-30: Created.
-->
<svg>
<metadata>
Created by iconfont
</metadata>
<defs>

<font id="iconfont" horiz-adv-x="1024" >
  <font-face
    font-family="iconfont"
    font-weight="500"
    font-stretch="normal"
    units-per-em="1024"
    ascent="896"
    descent="-128"
  />
    <missing-glyph />
    
    <glyph glyph-name="x" unicode="x" horiz-adv-x="1001"
d="M281 543q-27 -1 -53 -1h-83q-18 0 -36.5 -6t-32.5 -18.5t-23 -32t-9 -45.5v-76h912v41q0 16 -0.5 30t-0.5 18q0 13 -5 29t-17 29.5t-31.5 22.5t-49.5 9h-133v-97h-438v97zM955 310v-52q0 -23 0.5 -52t0.5 -58t-10.5 -47.5t-26 -30t-33 -16t-31.5 -4.5q-14 -1 -29.5 -0.5
t-29.5 0.5h-32l-45 128h-439l-44 -128h-29h-34q-20 0 -45 1q-25 0 -41 9.5t-25.5 23t-13.5 29.5t-4 30v167h911zM163 247q-12 0 -21 -8.5t-9 -21.5t9 -21.5t21 -8.5q13 0 22 8.5t9 21.5t-9 21.5t-22 8.5zM316 123q-8 -26 -14 -48q-5 -19 -10.5 -37t-7.5 -25t-3 -15t1 -14.5
t9.5 -10.5t21.5 -4h37h67h81h80h64h36q23 0 34 12t2 38q-5 13 -9.5 30.5t-9.5 34.5q-5 19 -11 39h-368zM336 498v228q0 11 2.5 23t10 21.5t20.5 15.5t34 6h188q31 0 51.5 -14.5t20.5 -52.5v-227h-327z" />
    

    
    <glyph glyph-name="wen" unicode="&#58880;" d="M77.12 672.96l434.88 0-71.04 127.68 67.2 33.6q14.4-19.2 32.16-50.4t43.68-77.28l-64.32-33.6 427.2 0 0-67.2-168 0q-24.96-133.44-76.8-236.64t-133.44-180q62.4-48 159.84-85.44t229.92-68.16l-18.24-41.28-23.04-37.44q-144 48.96-244.8 93.6t-160.32 90.72q-59.52-43.2-157.92-90.24t-243.36-101.76l-41.28 72q139.2 39.36 234.72 81.12t152.16 86.88q-82.56 85.44-135.36 188.64t-74.88 228l-168.96 0 0 67.2zM515.84 238.08000000000004q76.8 73.92 121.92 165.6t62.4 202.08l-383.04 0q40.32-213.12 198.72-367.68z"  horiz-adv-x="1024" />

    
    <glyph glyph-name="minus-circle-o" unicode="&#59012;" d="M512 853.34016q95.66208 0 182.49728-37.1712t149.66784-100.00384 100.00384-149.66784 37.1712-182.49728-37.1712-182.49728-100.00384-149.66784-149.66784-100.00384-182.49728-37.1712-182.49728 37.1712-149.66784 100.00384-100.00384 149.66784-37.1712 182.49728 37.1712 182.49728 100.00384 149.66784 149.66784 100.00384 182.49728 37.1712zM512 768q-78.00832 0-149.17632-30.49472t-122.49088-81.83808-81.83808-122.49088-30.49472-149.17632 30.49472-149.17632 81.83808-122.49088 122.49088-81.83808 149.17632-30.49472 149.17632 30.49472 122.49088 81.83808 81.83808 122.49088 30.49472 149.17632-30.49472 149.17632-81.83808 122.49088-122.49088 81.83808-149.17632 30.49472zM341.34016 426.65984l341.34016 0q17.67424 0 30.16704-12.4928t12.4928-30.16704-12.4928-30.16704-30.16704-12.4928l-341.34016 0q-17.67424 0-30.16704 12.4928t-12.4928 30.16704 12.4928 30.16704 30.16704 12.4928z"  horiz-adv-x="1024" />

    
    <glyph glyph-name="plus-circle-o" unicode="&#59101;" d="M512 853.333333q95.658667 0 182.485333-37.16266699t149.674667-100.01066701 100.010667-149.674667 37.16266699-182.485333-37.16266699-182.48533299-100.010667-149.67466701-149.674667-100.010667-182.485333-37.162667-182.485333 37.162667-149.674667 100.010667-100.010667 149.67466701-37.16266699 182.48533299 37.16266699 182.485333 100.010667 149.674667 149.674667 100.01066701 182.485333 37.16266699zM512 768q-77.994667 0-149.162667-30.506667t-122.496-81.83466699-81.83466699-122.496-30.50666701-149.16266701 30.50666701-149.162667 81.83466699-122.496 122.496-81.834667 149.162667-30.50666699 149.162667 30.50666699 122.496 81.834667 81.83466699 122.496 30.50666701 149.162667-30.50666701 149.16266701-81.83466699 122.496-122.496 81.83466699-149.162667 30.506667zM512 597.333333q17.664 0 30.165333-12.501333t12.50133301-30.165333l0-128 127.99999998 0q17.664 0 30.16533301-12.50133299t12.501333-30.16533301-12.501333-30.165333-30.16533301-12.501333l-128 0 0-128q0-17.664-12.50133299-30.16533299t-30.165333-12.50133301-30.165333 12.50133299-12.50133301 30.16533301l0 128-128 0q-17.664 0-30.16533299 12.501333t-12.501333 30.165333 12.501333 30.16533301 30.16533299 12.50133299l128 0 0 128q0 17.664 12.50133301 30.165333t30.165333 12.501333z"  horiz-adv-x="1024" />

    
    <glyph glyph-name="language" unicode="&#59269;" d="M511.7724448 839.11111147c-251.44888853 0-454.8835552-203.66222187-454.8835552-455.11111147s203.43466667-455.11111147 454.8835552-455.11111147c251.44888853 0 455.33866667 203.66222187 455.33866667 455.11111147s-203.88977813 455.11111147-455.33866667 455.11111147zM826.93688853 566.0444448000001l-134.25777813 0c-14.79111147 56.88888853-35.49866667 111.50222187-62.80533333 162.0195552 83.7404448-28.672 153.3724448-86.69866667 197.06311146-162.0195552zM512 746.496c38.00177813-54.61333333 67.584-115.37066667 86.92622187-180.4515552l-173.8524448 0c19.34222187 65.08088853 48.9244448 125.83822187 86.92622186 180.4515552zM159.744 292.97777813000005c-7.50933333 29.12711147-11.83288853 59.6195552-11.83288853 91.02222187s4.3235552 61.89511147 11.83288853 91.02222187l153.6 0c-3.64088853-29.80977813-6.144-60.07466667-6.144-91.02222187s2.50311147-61.2124448 6.3715552-91.02222187l-153.8275552 0zM196.8355552 201.95555520000005l134.25777813 0c14.79111147-56.88888853 35.49866667-111.50222187 62.80533334-162.24711147-83.7404448 28.672-153.3724448 86.92622187-197.06311147 162.24711147zM331.09333333 566.0444448000001l-134.25777813 0c43.69066667 75.32088853 113.32266667 133.57511147 197.06311147 162.24711147-27.30666667-50.74488853-48.01422187-105.35822187-62.80533334-162.24711147zM512 21.50400000000002c-37.77422187 54.61333333-67.3564448 115.37066667-86.92622187 180.4515552l173.8524448 0c-19.56977813-65.08088853-49.152-125.83822187-86.92622186-180.4515552zM618.496 292.97777813000005l-212.992 0c-4.3235552 29.80977813-7.28177813 60.07466667-7.28177813 91.02222187s2.95822187 61.2124448 7.28177813 91.02222187l212.992 0c4.3235552-29.80977813 7.28177813-60.07466667 7.28177813-91.02222187s-2.95822187-61.2124448-7.28177813-91.02222187zM630.10133333 39.936000000000035c27.30666667 50.74488853 48.01422187 105.13066667 62.80533334 162.0195552l134.25777813 0c-43.91822187-75.32088853-113.55022187-133.3475552-197.06311147-162.0195552zM710.4284448 292.97777813000005c3.64088853 29.80977813 6.3715552 60.07466667 6.3715552 91.02222187s-2.50311147 61.2124448-6.3715552 91.02222187l153.6 0c7.50933333-29.12711147 12.0604448-59.6195552 12.0604448-91.02222187s-4.3235552-61.89511147-12.0604448-91.02222187l-153.6 0z"  horiz-adv-x="1024" />

    
    <glyph glyph-name="minus" unicode="&#60289;" d="M914.285714 454.09523767l0-109.714286q0-22.820571-16.018286-38.838857t-38.838857-16.018286l-694.857143 0q-22.820571 0-38.838857 16.018286t-16.018286 38.838857l0 109.714286q0 22.820571 16.018286 38.838857t38.838857 16.018286l694.857143 0q22.820571 0 38.838857-16.018286t16.018286-38.838857z"  horiz-adv-x="1024" />

    
    <glyph glyph-name="home" unicode="&#58958;" d="M950.153231 434.489689l-122.16073 111.794026-1.27984 1.087864 0 136.87889c0 10.110736-8.190976 18.365704-18.365704 18.365704l-82.549681 0c-10.110736 0-18.365704-8.190976-18.365704-18.365704l0-35.835521-5.11936 4.351456-150.829146 134.255218c-0.63992 0.575928-1.343832 1.023872-1.983752 1.471816-11.070616 8.766904-24.060992 13.43832-37.563305 13.43832-14.07824 0-27.51656-4.991376-38.971129-14.526184-0.127984-0.191976-0.31996-0.383952-0.511936-0.447944l-398.670166-352.595926c-10.55868-9.086864-12.926384-26.428696-5.247344-38.907137 7.67904-12.414448 22.525184-15.230096 33.083865-6.207224l398.350206 352.40395c0.063992 0 0.191976 0.127984 0.255968 0.191976C503.68104 744.850894 507.712536 746.386702 512 746.386702s8.31896-1.535808 11.710536-4.415448c0.191976-0.127984 0.383952-0.255968 0.575928-0.383952l398.094238-352.211974c10.55868-9.022872 25.404824-6.271216 33.083865 6.207224C963.079615 408.060992 960.775903 425.402825 950.153231 434.489689zM543.868016 624.8019c0 0.063992-0.127984 0.127984-0.191976 0.191976-9.342832 7.807024-20.349456 11.966504-31.740032 12.030496-11.390576 0-22.333208-4.15948-31.67604-11.902512-0.063992-0.127984-0.191976-0.191976-0.31996-0.31996l-276.189476-247.969004c-6.207224-5.311336-9.790776-13.694288-9.790776-22.525184l0.191976-328.598925c0-32.955881 26.748656-59.704537 59.704537-59.704537l156.780402 0 0 204.198475c0 41.338833 28.412448 74.742657 63.480065 74.742657l65.911761 0c35.067617 0 63.544057-33.403825 63.544057-74.742657l0-204.198475 166.315211 0c32.955881 0 59.704537 26.748656 59.704537 59.704537l0.255968 328.598925c0 8.830896-3.647544 17.213848-9.790776 22.525184L543.868016 624.8019z"  horiz-adv-x="1024" />

    
    <glyph glyph-name="filter" unicode="&#59026;" d="M414.90963001 92.72888889000001l194.18074112 0 0 97.09036999-194.18074112 0L414.90963001 92.72888889000001zM75.09333333 675.27111111l0-97.09036999 873.81333334 0L948.90666667 675.27111111 75.09333333 675.27111111zM220.72888889 335.45481443000006l582.54222222 0 0 97.09037L220.72888889 432.54518557 220.72888889 335.45481443000006z"  horiz-adv-x="1024" />

    
    <glyph glyph-name="right" unicode="&#58893;" d="M512.4350726 805.875l-149.45388904-149.55936109c0 0 83.85027649-83.85027649 166.43488843-166.43488842L90.125 489.88075049l0-211.55055606 439.29107199 0-166.54036047-166.6194645 149.55936108-149.55936109L933.90136801 383.98681558 512.4350726 805.875z"  horiz-adv-x="1025" />

    
    <glyph glyph-name="check-circle" unicode="&#59051;" d="M501.333333-42.66666699999996c-234.666667 0-426.666667 192-426.666667 426.666667s192 426.666667 426.666667 426.666667 426.666667-192 426.666667-426.666667S736-42.66666699999996 501.333333-42.66666699999996zM763.733333 518.4c-10.666667 10.666667-25.6 10.666667-36.266667 0L462.933333 253.866667 298.666667 416c-10.666667 10.666667-25.6 10.666667-36.266667 0-10.666667-10.666667-10.666667-25.6 0-36.266667l181.333333-181.333333c10.666667-10.666667 25.6-10.666667 36.266667 0l283.733333 283.733333C772.266667 492.8 772.266667 507.733333 763.733333 518.4z"  horiz-adv-x="1024" />

    
    <glyph glyph-name="star" unicode="&#59084;" d="M953.45777813 440.88888853c-65.99111147-70.54222187-175.21777813-186.5955552-175.21777813-186.5955552s20.48-166.1155552 31.85777813-259.41333333c4.55111147-36.40888853-52.33777813-36.40888853-52.33777813-36.40888853l-2.2755552 2.2755552c-86.47111147 40.96-232.10666667 109.22666667-232.10666667 109.22666666s-150.18666667-70.54222187-236.65777813-111.50222186c-34.13333333-15.92888853-54.61333333 2.2755552-50.06222187 40.96 11.37777813 95.57333333 31.85777813 254.86222187 31.85777814 254.86222186s-93.29777813 100.1244448-159.28888854 170.66666667c-36.40888853 38.6844448-34.13333333 72.81777813 4.55111147 79.6444448 93.29777813 18.2044448 252.58666667 47.78666667 252.58666667 47.78666667s86.47111147 157.01333333 131.98222186 238.93333333C512 820.90666667 532.48 820.90666667 548.40888853 793.6c43.2355552-79.6444448 131.98222187-241.20888853 131.98222187-241.20888853S853.33333333 520.53333333 946.63111147 502.32888853C978.48888853 495.50222187 980.7644448 470.47111147 953.45777813 440.88888853z"  horiz-adv-x="1024" />

    
    <glyph glyph-name="plus-circle" unicode="&#58899;" d="M512 832C262.4 832 64 633.6 64 384s198.4-448 448-448 448 198.4 448 448S761.6 832 512 832zM704 320L576 320l0-128c0-38.4-25.6-64-64-64s-64 25.6-64 64L448 320 320 320C281.6 320 256 345.6 256 384s25.6 64 64 64l128 0L448 576c0 38.4 25.6 64 64 64s64-25.6 64-64l0-128 128 0c38.4 0 64-25.6 64-64S742.4 320 704 320z"  horiz-adv-x="1024" />

    
    <glyph glyph-name="minus-circle" unicode="&#58908;" d="M512 832C262.4 832 64 633.6 64 384s198.4-448 448-448 448 198.4 448 448S761.6 832 512 832zM704 320L320 320C281.6 320 256 345.6 256 384s25.6 64 64 64l384 0c38.4 0 64-25.6 64-64S742.4 320 704 320z"  horiz-adv-x="1024" />

    
    <glyph glyph-name="melee" unicode="&#58970;" d="M264.67578125 805.875l-11.6015625-11.77734375-148.88671875-150.64453125 9.84375-11.42578125c18.28125-21.4453125 52.55859375-42.01171875 90.17578125-54.4921875 18.80859375-6.328125 38.14453125-10.1953125 56.953125-9.66796875 9.4921875 0.3515625 18.984375 1.93359375 27.94921875 5.09765625 142.20703125-140.625 280.72265625-286.69921875 419.0625-432.7734375-27.7734375-25.83984375-56.25-48.33984375-82.6171875-64.16015625 99.4921875-99.4921875 222.36328125-138.8671875 288.28125-96.85546875 40.4296875 66.4453125 1.93359375 189.4921875-96.85546875 288.28125-17.2265625-26.54296875-39.0234375-54.4921875-63.28125-81.03515625L329.1875 611.109375c10.8984375 22.1484375 13.0078125 48.8671875 7.734375 75.5859375-7.20703125 36.9140625-28.125 75.05859375-60.46875 107.40234375L264.67578125 805.875 264.67578125 805.875zM871.296875 804.8203125c-57.48046875-83.49609375-124.62890625-157.32421875-204.609375-218.49609375l-65.390625 65.390625c11.07421875 28.4765625 5.44921875 61.875-17.578125 84.90234375-7.55859375 7.55859375-16.34765625 13.18359375-25.48828125 17.05078125 11.77734375-29.00390625 5.625-64.16015625-17.9296875-87.71484375s-57.83203125-28.828125-86.8359375-17.05078125c3.8671875-9.31640625 9.4921875-17.9296875 17.05078125-25.48828125l0 0c23.73046875-23.73046875 57.83203125-29.35546875 86.484375-17.40234375l37.44140625-37.44140625c-27.421875-31.81640625-55.72265625-62.578125-84.375-92.28515625l35.33203125-35.33203125 85.95703125 85.95703125 23.203125-23.203125-85.95703125-85.95703125 32.87109375-32.87109375c29.70703125 28.4765625 60.29296875 56.6015625 92.28515625 84.375l38.49609375-38.49609375c-10.546875-28.30078125-4.74609375-61.171875 17.9296875-83.84765625 7.55859375-7.55859375 16.34765625-13.18359375 25.48828125-17.05078125-11.77734375 29.00390625-5.625 64.16015625 17.9296875 87.71484375 23.5546875 23.5546875 57.83203125 28.828125 86.8359375 17.05078125-3.8671875 9.31640625-9.4921875 17.9296875-17.05078125 25.48828125l0 0c-23.90625 23.90625-58.53515625 29.53125-87.5390625 16.875l-65.7421875 65.7421875c59.765625 81.38671875 135.52734375 146.42578125 219.55078125 203.37890625L871.296875 804.8203125 871.296875 804.8203125zM284.5390625 730.81640625c10.1953125-17.05078125 17.05078125-34.27734375 20.21484375-50.625 5.80078125-29.35546875 0.17578125-53.7890625-15.29296875-69.2578125-6.50390625-6.50390625-15.99609375-9.84375-29.1796875-10.37109375-13.18359375-0.3515625-29.35546875 2.63671875-45.52734375 7.91015625-12.48046875 4.21875-24.9609375 9.84375-36.2109375 16.171875L284.5390625 730.81640625 284.5390625 730.81640625zM423.40625 390.6796875C333.58203125 305.953125 239.36328125 227.5546875 143.03515625 149.68359375L93.46484375-30.84375l183.33984375 48.515625c80.33203125 102.65625 156.4453125 193.53515625 237.3046875 278.96484375-10.8984375 11.25-21.62109375 22.67578125-32.51953125 33.92578125L185.75 34.8984375l-23.203125 23.203125 296.19140625 296.19140625C446.9609375 366.421875 435.18359375 378.55078125 423.40625 390.6796875L423.40625 390.6796875z"  horiz-adv-x="1024" />

    
    <glyph glyph-name="github" unicode="&#61154;" d="M32 371.62939406c0-209.61914063 134.34448219-387.83569312 321.56982469-453.27758812 25.21362281-6.37207033 21.36840844 11.6271975 21.36840843 23.80371093l0 83.14819312c-145.58715843-17.06542969-151.40991188 79.32128906-161.24267625 95.34301782-19.77539065 33.74633813-66.37573219 42.37060594-52.49633812 58.410645 33.17871094 17.06542969 66.94335938-4.32128906 106.03637719-62.16430687 28.30810594-41.91284156 83.53271531-34.88159156 111.56616187-27.85034157 6.09741187 25.21362281 19.22607469 47.71728564 37.22534156 65.25878907-150.75073219 27.00805687-213.66577125 119.05517625-213.66577125 228.57055687 0 53.06396531 17.52319312 101.89819313 51.83715844 141.28417968-21.84448219 64.96582031 2.06909156 120.46508812 5.25512719 128.72314501 62.34741187 5.62133813 127.03857469-44.6228025 132.09228562-48.55957031 35.43090844 9.55810594 75.84228563 14.63012718 121.03271532 14.63012718 45.46508813 0 86.05957031-5.25512719 121.691895-14.90478562 12.08496094 9.191895 72.18017625 52.31323219 130.13305687 47.05810593 3.09448219-8.25805687 26.44042969-62.53051781 5.91430688-126.56249999 34.79003906-39.47753906 52.49633813-88.69628906 52.49633812-141.94335938 0-109.68017625-63.28125001-201.83715844-214.50805687-228.46069312 25.21362281-24.93896438 40.86914063-59.43603563 40.86914062-97.68676782l0-120.75805687c0.84228469-9.64965844 0-19.22607469 16.13159156-19.22607469 189.9353025 64.03198219 326.71508814 243.566895 326.71508813 455.07202125 0 265.22827125-214.96582031 479.99267625-479.99267625 479.99267625C246.78271532 851.62207031 32 636.83935594 32 371.62939406L32 371.62939406z"  horiz-adv-x="1025" />

    
    <glyph glyph-name="plus" unicode="&#59107;" d="M914.285714 454.09523767v-109.714285q0-22.857143-16-38.857143t-38.857143-16H621.714286v-237.714286q0-22.857143-16-38.857143t-38.857143-16H457.142857q-22.857143 0-38.857143 16t-16 38.857143v237.714286H164.571429q-22.857143 0-38.857143 16T109.714286 344.38095267000006V454.09523767q0 22.857143 16 38.857143t38.857143 16h237.714285V746.66666667q0 22.857143 16 38.857143t38.857143 16h109.714286q22.857143 0 38.857143-16t16-38.857143v-237.714286h237.714285q22.857143 0 38.857143-16t16-38.857143z"  horiz-adv-x="1024" />

    
    <glyph glyph-name="close-selected" unicode="&#58885;" d="M512.00051504 834c-248.52824121 0-449.99948497-201.47124375-449.99948408-449.99948497s201.47227471-449.99948497 449.99948408-449.99948407S962 135.47227470999997 962 384.00051504 760.52875625 834 512.00051504 834zM682.47015664 259.34364287000005c15.90901523-15.91004619 15.90901523-41.94401133 0-57.85405752-15.91004619-15.90901523-41.94504229-15.90901523-57.85405752 0L508.9079832 317.19770127000004 393.19883721 201.48958534999997c-15.91004619-15.90901523-41.94401133-15.90901523-57.85405752 1e-8-15.91004619 15.91004619-15.91004619 41.94401133 0 57.85405751l115.70811504 115.70811592-115.70811504 115.70811504c-15.91004619 15.91004619-15.91004619 41.94401133 0 57.85405752 15.91004619 15.91004619 41.94401133 15.91004619 57.85405752 0l115.70811503-115.70811504L624.61506816 548.61393135c15.90901523 15.91004619 41.94401133 15.91004619 57.85405752 0 15.90901523-15.91004619 15.90901523-41.94401133 0-57.85405752L566.76204073 375.05175878 682.47015664 259.34364287000005z"  horiz-adv-x="1024" />

    
    <glyph glyph-name="bow" unicode="&#59002;" d="M926.165333 414.165333l-128 128-60.330666-60.330666L793.002667 426.666667H230.997333l211.797334 211.797333c85.504-7.808 157.141333-75.690667 184.789333-169.130667h87.936c-33.28 146.986667-149.973333 256-288.853333 256-47.061333 0-85.333333 38.272-85.333334 85.333334H256c0-64.469333 36.394667-120.021333 89.258667-149.077334l-247.424-247.424a42.624 42.624 0 0 1 0-60.330666l247.424-247.466667C292.394667 77.35466699999995 256 21.802667000000042 256-42.66666699999996h85.333333c0 47.104 38.272 85.333333 85.333334 85.333334 138.88 0 255.530667 109.013333 288.853333 256h-87.936c-27.648-93.354667-99.242667-161.322667-184.789333-169.130667L230.997333 341.33333300000004h562.005334l-55.168-55.168 60.330666-60.330666 128 128a42.624 42.624 0 0 1 0 60.330666z"  horiz-adv-x="1024" />

    
    <glyph glyph-name="check" unicode="&#59470;" d="M954.857143 572.571429q0-22.857143-16-38.857143l-413.714286-413.714286-77.714286-77.714286q-16-16-38.857142-16t-38.857143 16l-77.714286 77.714286-206.857143 206.857143q-16 16-16 38.857143t16 38.857143l77.714286 77.714285q16 16 38.857143 16t38.857143-16l168-168.571428 374.857142 375.428571q16 16 38.857143 16t38.857143-16l77.714286-77.714286q16-16 16-38.857142z"  horiz-adv-x="1024" />

    
    <glyph glyph-name="back" unicode="&#58923;" d="M807.06566934 607.2173328599999H291.58008319l97.39532483 90.85430867a61.99567246 61.99567246 0 0 1 0 89.24990901 65.22504236 65.22504236 0 0 1-45.86939264 18.55344946 65.20447348 65.20447348 0 0 1-45.7665466-18.43003372l-188.29077292-194.23528171a62.05738073 62.05738073 0 0 1 0.12341492-89.39389362l188.04394226-193.98845023a65.24561206 65.24561206 0 0 1 45.88996234-18.57401915c17.31929535 0 33.61012949 6.58215473 45.86939264 18.55344946a62.01624216 62.01624216 0 0 1 0.08227716 89.16763183l-95.17384808 89.12649326H678.981046c196.25106637 0 199.9740976-3.80530838 199.97409758-203.38859153v-69.25661251c0-62.92128846 0.02056887-97.58044885-28.09757373-115.82535937-26.98683535-17.52498742-77.62829096-18.2860491-180.49503296-18.28604911H221.60354675v-119.13700643h585.46212259c103.54552652 0 191.04705038 87.48095416 191.04705038 191.04705037V416.17028247c-0.02056887 96.40800219-94.63904819 191.04705038-191.04705038 191.04705039zM221.0070394 21.81691854999997m-59.63021109 0a59.63021108 59.63021108 0 1 1 119.26042218 0 59.63021108 59.63021108 0 1 1-119.26042218 0Z"  horiz-adv-x="1102" />

    
    <glyph glyph-name="question" unicode="&#58996;" d="M528.51409912 805.875C396.97644043 805.875 311.77911377 751.9821167 244.89050293 655.86877442c-12.1338501-17.43530273-8.39300537-41.34045411 8.53308105-54.17468262l71.08923341-53.902771c17.09417724-12.9611206 41.41625977-9.93054199 54.79925537 6.83569336 41.27947998 51.71429443 71.90002442 81.48944092 136.37933349 81.48944092 50.69750977 0 113.40527344-32.62774658 113.40527344-81.78936768 0-37.16455078-30.6798706-56.25109863-80.73797607-84.31567383-58.37530518-32.72827148-135.62457276-73.45898438-135.62457276-175.35003662V278.53125c0-21.8435669 17.70721435-39.55078125 39.55078125-39.55078125h119.42852783c21.8435669 0 39.55078125 17.70721435 39.55078125 39.55078125v9.51361084c0 70.63110352 206.43530273 73.57269287 206.43530274 264.70513916C817.70117188 696.68847656 668.39367676 805.875 528.51409912 805.875zM512 190.43353271c-62.94506836 0-114.15509033-51.21002198-114.15509033-114.15509033 0-62.94342041 51.21002198-114.15344239 114.15509033-114.15344238s114.15509033 51.21002198 114.15509033 114.15509033-51.21002198 114.15344239-114.15509033 114.15344238z"  horiz-adv-x="1024" />

    
    <glyph glyph-name="sort-up" unicode="&#59011;" d="M97.14356959 187.74398035000002L463.04694124 553.6473519799999 512.00000007 602.60041082l49.36791518-48.53820237L926.85643047 187.74398035000002z"  horiz-adv-x="1024" />

    
    <glyph glyph-name="top" unicode="&#58912;" d="M567.01953125 565.23046875c-13.97460938 14.32617188-33.75 23.64257813-55.98632813 23.64257813-22.23632813 0-41.92382813-9.31640625-55.72265625-23.73046876L229.34375 327.57421875c-11.77734375-12.83203125-19.3359375-29.35546875-19.3359375-47.72460938 0-39.375 33.66210938-71.27929688 75.234375-71.27929687 22.23632813 0 41.92382813 9.31640625 55.72265625 23.81835938l94.83398438 99.40429687v-298.30078125c0-39.375 33.75-71.27929688 75.23437499-71.27929688 41.57226563 0 75.234375 31.90429688 75.234375 71.27929688V331.70507812000005l94.5703125-99.58007812c13.97460938-14.32617188 33.75-23.5546875 55.98632813-23.5546875 41.57226563 0 75.234375 31.90429688 75.234375 71.27929688 0 18.36914063-7.55859375 34.89257813-19.51171875 47.54882812L567.01953125 565.23046875z m0 0M838.07421875 805.875H185.92578125c-41.57226563 0-75.234375-31.90429688-75.234375-71.27929688s33.66210938-71.27929688 75.234375-71.27929687h652.1484375c41.57226563 0 75.234375 31.90429688 75.234375 71.27929688S879.64648438 805.875 838.07421875 805.875z m0 0"  horiz-adv-x="1024" />

    
    <glyph glyph-name="edit" unicode="&#59501;" d="M880 60H144c-17.7 0-32-14.3-32-32v-36c0-4.4 3.6-8 8-8h784c4.4 0 8 3.6 8 8v36c0 17.7-14.3 32-32 32zM257.7 144c2 0 4 0.2 6 0.5L431.9 174c2 0.4 3.9 1.3 5.3 2.8l423.9 423.9c3.9 3.9 3.9 10.2 0 14.1L694.9 781.1c-1.9 1.9-4.4 2.9-7.1 2.9s-5.2-1-7.1-2.9L256.8 357.20000000000005c-1.5-1.5-2.4-3.3-2.8-5.3l-29.5-168.2c-1.9-11.1 1.5-21.9 9.4-29.8 6.6-6.4 14.9-9.9 23.8-9.9z"  horiz-adv-x="1024" />

    
    <glyph glyph-name="pokemon" unicode="&#59103;" d="M391.253333 341.333333H128a42.666667 42.666667 0 0 0-42.666667 42.666667C85.333333 619.648 276.352 810.666667 512 810.666667a426.666667 426.666667 0 0 0 396.373333-268.544 42.666667 42.666667 0 1 0-79.232-31.616A341.418667 341.418667 0 0 1 173.312 426.666667H391.253333a128.042667 128.042667 0 0 0 241.408 0h263.381334a42.666667 42.666667 0 0 0 42.666666-42.666667c0-235.648-191.018667-426.666667-426.666666-426.666667a426.752 426.752 0 0 0-396.373334 268.544 42.666667 42.666667 0 0 0 79.232 31.616A341.418667 341.418667 0 0 1 850.730667 341.333333h-218.026667a128.042667 128.042667 0 0 0-241.408 0zM512 341.333333a42.666667 42.666667 0 1 1 0 85.333334 42.666667 42.666667 0 0 1 0-85.333334z"  horiz-adv-x="1024" />

    
    <glyph glyph-name="left" unicode="&#58959;" d="M511.5649274-37.875l149.45388904 149.55936108c0 0-83.85027649 83.85027649-166.43488843 166.43488844L933.875 278.11924951000003l0 211.55055606-439.29107199 0 166.54036046 166.6194645-149.55936107 149.55936109L90.09863199 384.01318442 511.5649274-37.875z"  horiz-adv-x="1025" />

    
    <glyph glyph-name="dish" unicode="&#59270;" d="M570.88 657.493C790.443 628.693 960 440.811 960 213.333v-64h42.667A21.333 21.333 0 0 0 1024 128a106.667 106.667 0 0 0-106.667-106.667H106.667A106.667 106.667 0 0 0 0 128a21.333 21.333 0 0 0 21.333 21.333H64v64c0 227.478 169.536 415.36 389.12 444.16a64 64 0 1 0 117.717 0z m406.827-550.826H46.293A64.021 64.021 0 0 1 106.667 64h810.666a64.021 64.021 0 0 1 60.374 42.667z m-60.374 106.666c0 223.851-181.482 405.334-405.333 405.334S106.667 437.184 106.667 213.333v-64h810.666v64z m-704 0a21.333 21.333 0 0 0-42.666 0c0 188.523 152.81 341.334 341.333 341.334A21.333 21.333 0 0 0 512 512c-164.95 0-298.667-133.717-298.667-298.667z m298.667 448A21.333 21.333 0 1 1 512 704a21.333 21.333 0 0 1 0-42.667z"  horiz-adv-x="1024" />

    
    <glyph glyph-name="sort-down" unicode="&#61155;" d="M926.85643041 580.25601965L560.95305875 214.35264801999995 511.99999993 165.39958918000002l-49.36791518 48.53820238L97.14356953 580.25601965z"  horiz-adv-x="1024" />

    


  </font>
</defs>
</svg>
